<mxfile host="65bd71144e">
    <diagram id="FQ3vRzvQjMP7juogMcCg" name="用例概览">
        <mxGraphModel dx="1256" dy="678" grid="1" gridSize="10" guides="1" tooltips="1" connect="1" arrows="1" fold="1" page="1" pageScale="1" pageWidth="827" pageHeight="1169" math="0" shadow="0">
            <root>
                <mxCell id="0"/>
                <mxCell id="1" parent="0"/>
                <mxCell id="6yHDQiKbJkn8gTUTNSf6-3" style="edgeStyle=none;html=1;endArrow=none;endFill=0;" parent="1" source="eacPk6s5SArJRNYhUjPd-1" target="6yHDQiKbJkn8gTUTNSf6-1" edge="1">
                    <mxGeometry relative="1" as="geometry"/>
                </mxCell>
                <mxCell id="6yHDQiKbJkn8gTUTNSf6-4" style="edgeStyle=none;html=1;endArrow=none;endFill=0;" parent="1" source="eacPk6s5SArJRNYhUjPd-1" target="6yHDQiKbJkn8gTUTNSf6-2" edge="1">
                    <mxGeometry relative="1" as="geometry"/>
                </mxCell>
                <mxCell id="eacPk6s5SArJRNYhUjPd-1" value="财务人员" style="shape=umlActor;verticalLabelPosition=bottom;verticalAlign=top;html=1;" parent="1" vertex="1">
                    <mxGeometry x="190" y="160" width="30" height="60" as="geometry"/>
                </mxCell>
                <mxCell id="6yHDQiKbJkn8gTUTNSf6-1" value="收入管理" style="ellipse;whiteSpace=wrap;html=1;" parent="1" vertex="1">
                    <mxGeometry x="300" y="110" width="140" height="70" as="geometry"/>
                </mxCell>
                <mxCell id="6yHDQiKbJkn8gTUTNSf6-2" value="支出管理" style="ellipse;whiteSpace=wrap;html=1;" parent="1" vertex="1">
                    <mxGeometry x="300" y="230" width="140" height="70" as="geometry"/>
                </mxCell>
            </root>
        </mxGraphModel>
    </diagram>
</mxfile>